<svg viewBox="0 0 858 407" xmlns="http://www.w3.org/2000/svg"><path d="m17.9 196h826.1v189.5h-826.1z" fill="#fff"/><path d="m858 406.7h-858v-229h858zm-822-35h786v-158h-786z" fill="#c6c6c5"/><path d="m107 260.7h12.2c17.8 0 22.2 10.3 22.2 32.2 0 21.2-4.1 31.8-22.1 31.8h-12.3zm-50 96h71.1c37.1 0 65.2-15.9 65.2-64.1 0-51.7-26.1-64.9-63.2-64.9h-73.1zm158-129h114v33h-64v18h60v32h-60v18h64v28h-114zm186 33h12c12 0 24.1 1.8 24.1 15.4 0 14.2-12.1 16.6-23.9 16.6h-12.2zm-47 96h50v-36h35.2c25.9 0 47.6-14.8 47.6-48.1 0-34.3-27.3-44.9-47.4-44.9h-85.4zm202.9-63c0-11.9 1.5-35.2 19.8-35.2 18.9 0 20.2 23.4 20.4 35.2-.2 13.7-.7 35.2-20.4 35.2-17.8 0-19.8-21.5-19.8-35.2zm92.1 0c0-42.7-27.1-65.9-72.3-65.9s-71.7 23.2-71.7 65.9c0 43.5 26.5 65.9 71.7 65.9 45.3 0 72.3-22.4 72.3-65.9zm152-26h-43v89h-50v-89h-43v-40h136z" fill="#4d82b8"/><path d="m76.3 85.4c-5.6 4.6-13.7 9.2-24.4 13.6-6.5 2.6-13 5.2-19.5 7.9l8.1-61h10.1c6.9-.1 14.1 1 21.7 3.5 10.6 3.3 15.8 7.9 15.8 13.8.1 8.2-3.8 15.6-11.8 22.2zm5.2-55.8c-13.4-4.5-28.2-6.7-44.4-6.7-4.3 0-6.7.1-7.1.4-2.4 1.2-4.9 2.9-7.4 5.2-2.5 2.2-3.9 4-4.2 5.4-3.7 21-7.5 47.6-11.6 80-3.5 27.6-5.2 42.2-5.1 43.8v6.1c9.7 1.1 17 1.9 21.9 2.4.4-2.2 1.4-9.3 3-21.5 1.1-8.7 2.2-15.5 3.5-20.5 1.9 3.4 3.2 5.9 3.9 7.5 19.3-6.6 35.8-14.9 49.3-24.8 19.2-13.8 28.8-28.6 28.8-44.5 0-14.9-10.2-25.9-30.6-32.8zm84.5 103.1c-8.1 11.9-17 18.9-26.8 21.1 2.8-17 5.5-28.3 7.9-33.9 5.4-12.8 14.1-20.8 26.2-23.7 2.4 3.5 3.7 6.4 3.7 8.7-.1 8-3.7 17.3-11 27.8zm39.1-18.9c-3.5-8.8-7-17.7-10.6-26.6-6.2-14.1-12.9-25.1-19.9-33.1-9.3-11-19.5-16.4-30.4-16.4h-19.1c.1 15.5 0 23.1 0 23 1-.4 3.6-.6 6.3-.6 6.9 0 12.3.8 16.2 2.4 5.1 2.2 9.9 6.3 14.4 12.6-14.3 1.5-26.2 14.1-35.7 37.7-7.6 18.7-11.4 35.5-11.4 50.5 0 2.2 1.6 5.3 4.7 9.3 3.4 4.6 6.6 6.9 9.7 6.9 10.7 0 22-4 33.9-12 12.6-8.4 21.6-18.7 27.2-31 6.8 12.6 12.5 21.7 17.3 27.2 7.8-7.2 13.5-12.3 16.8-15.2-6.7-8.5-13.1-20.1-19.4-34.7zm93.5 40.2c0 14.7-7.5 26.5-22.4 35.4-11.8 7-24 10.5-36.8 10.5h-9.1v-22.8c9.2.7 18.1-.3 26.5-3 12.1-3.9 18.1-10.6 18.1-20.1 0-6.8-3.5-13.5-10.6-20.3-12.9-12.6-19.4-18.9-19.6-18.9-7.1-8.8-10.6-19-10.6-30.6 0-11.4 4.8-20.8 14.4-28.2 8.5-6.6 18.4-9.9 29.8-9.9h7.9v22.2h-2.2c-6.9 0-12.7 1.2-17.4 3.4-6.2 3.1-9.3 7.9-9.3 14.4 0 7 3.6 14.1 10.8 21.3 6.7 6.3 13.3 12.7 20 19 6.9 8.3 10.5 17.5 10.5 27.6zm75.6 0c0 14.7-7.5 26.5-22.4 35.4-11.8 7-24 10.5-36.8 10.5h-9v-22.8c9.2.7 18.1-.3 26.5-3 12.1-3.9 18.1-10.6 18.1-20.1 0-6.8-3.5-13.5-10.6-20.3-12.9-12.6-19.5-18.9-19.6-18.9-7.1-8.8-10.6-19-10.6-30.6 0-11.4 4.8-20.8 14.4-28.2 8.5-6.6 18.4-9.9 29.8-9.9h7.3v22.2h-1.6c-6.9 0-12.7 1.2-17.4 3.4-6.2 3.1-9.3 7.9-9.3 14.4 0 7 3.6 14.1 10.8 21.3 6.7 6.3 13.3 12.7 20 19 6.9 8.3 10.4 17.5 10.4 27.6zm178.7-117.1-22.3 131.7c-4.8.9-11.8 2-20.9 3.4l-49.5-80.9-48.2 80.1-19.8-4.3-9.7-129c4.1-.5 11.4-1.4 21.9-2.6l8.1 92.3c2.7-4.3 15.2-26 37.6-65.1h19.5c10 16.8 24.4 40.6 43.3 71.6l18-103.6c2.3.3 5.8.8 10.6 1.6s8.3 1.3 10.4 1.6c.7.7 1 1.8 1 3.2zm81.1 97.2c-4.6 8.8-9.4 13.2-14.4 13.2-6.5 0-12.4-3.2-17.8-9.7-6.8-7.7-10.1-18.7-10.1-32.9s2.2-25.2 6.7-32.9c3.9-6.2 9.1-9.3 15.4-9.3 18.1 0 27.2 13.2 27.2 39.6-.1 12.5-2.4 23.2-7 32zm14.2-80.8c-8.4-9.9-19.2-14.8-32.5-14.8-12 0-22.8 6.5-32.3 19.5-10 13.8-15 30.6-15 50.3 0 20.7 6.1 37.1 18.3 49.1 10 9.7 21.1 14.6 33.3 14.6 12.3 0 22.5-7 30.6-20.9 7.8-13.4 11.8-29.6 11.8-48.5 0-21.5-4.7-37.9-14.2-49.3zm109.9 29.6h-4.9c-10.1 0-20.3 4.9-30.4 14.8s-16.1 20.3-17.9 31.2c-.3 1.8 0 6.2.8 13.4.9 7.7 1.3 11.7 1.3 12v20.3h-23v-28.3c0-15.1-1.9-30.6-5.6-46.3-2.8-11.1-5.3-18.5-7.5-22.3 3-3 8.9-7.5 17.9-13.6 2.3 2.8 4.3 7.1 6.1 12.8 2.2 6.9 3.7 11.2 4.5 12.8 4.7-7.3 12.5-14.1 23.2-20.3 10.8-6.2 19.9-9.3 27.3-9.3h8.4v22.8zm64.8 66.8c-9.7-6.2-17.3-13.1-22.8-20.6s-8.2-14.8-8.2-21.8c0-13.9 11-25.8 32.9-35.7 3.5 12.4 5.4 19.3 5.7 20.7 1.2 5.4 1.8 11.4 1.8 17.8 0 13.3-3.1 26.5-9.4 39.6zm17.4-100.8c-12.4-24.5-28.7-40.8-48.9-49.1l-8.5 21.3c5 1.2 11.2 5.1 18.6 11.8 7.4 6.6 11.9 12.4 13.5 17.4-15.8 9.9-27.3 19.4-34.5 28.6s-10.7 19.3-10.7 30.4c0 10.4 2.7 20 8.2 28.7s14.8 18.2 28.1 28.5c8.2 6.3 13.5 9.5 15.6 9.5 11 0 19.8-9.1 26.6-27.4 5.3-13.9 7.9-26.9 7.9-39-.1-19.7-5.3-40-15.9-60.7z" fill="#727272"/></svg>